HIERARCHY
ROOT Hips
{
    OFFSET   0.000000   0.000000   0.000000
    CHANNELS 6 Xposition Yposition Zposition Zrotation Xrotation Yrotation
    JOINT Chest
    {
        OFFSET   0.000000   8.007240   0.000000
        CHANNELS 3 Zrotation Xrotation Yrotation
        JOINT Chest2
        {
            OFFSET   0.000000  22.077100   0.000000
            CHANNELS 3 Zrotation Xrotation Yrotation
            JOINT Neck
            {
                OFFSET   0.000000  23.254800   0.000000
                CHANNELS 3 Zrotation Xrotation Yrotation
                JOINT Head
                {
                    OFFSET   0.000000  14.370000   1.956600
                    CHANNELS 3 Zrotation Xrotation Yrotation
                    End Site
                    {
                        OFFSET   0.000000  19.566000   0.000000
                    }
                }
            }
            JOINT LeftCollar
            {
                OFFSET   3.911900  19.017000  -0.467064
                CHANNELS 3 Zrotation Xrotation Yrotation
                JOINT LeftShoulder
                {
                    OFFSET  10.383700   0.000000   0.000000
                    CHANNELS 3 Zrotation Xrotation Yrotation
                    JOINT LeftElbow
                    {
                        OFFSET  26.662100   0.001476   0.000517
                        CHANNELS 3 Zrotation Xrotation Yrotation
                        JOINT LeftWrist
                        {
                            OFFSET  28.869000  -0.000025  -0.000106
                            CHANNELS 3 Zrotation Xrotation Yrotation
                            JOINT LeftFinger0
                            {
                                OFFSET   2.044660  -2.323460   3.252850
                                CHANNELS 3 Zrotation Xrotation Yrotation
                                JOINT LeftFinger01
                                {
                                    OFFSET   3.088130   0.000000   0.000000
                                    CHANNELS 3 Zrotation Xrotation Yrotation
                                    JOINT LeftFinger02
                                    {
                                        OFFSET   2.639460   0.000000   0.000000
                                        CHANNELS 3 Zrotation Xrotation Yrotation
                                        End Site
                                        {
                                            OFFSET   2.582190   0.000000   0.000000
                                        }
                                    }
                                }
                            }
                            JOINT LeftFinger1
                            {
                                OFFSET   8.364480   0.000000   3.252850
                                CHANNELS 3 Zrotation Xrotation Yrotation
                                JOINT LeftFinger11
                                {
                                    OFFSET   4.646930   0.000000   0.000000
                                    CHANNELS 3 Zrotation Xrotation Yrotation
                                    JOINT LeftFinger12
                                    {
                                        OFFSET   2.323460   0.000000   0.000000
                                        CHANNELS 3 Zrotation Xrotation Yrotation
                                        End Site
                                        {
                                            OFFSET   2.273050   0.000000   0.000000
                                        }
                                    }
                                }
                            }
                            JOINT LeftFinger2
                            {
                                OFFSET   8.364490   0.000015   1.078090
                                CHANNELS 3 Zrotation Xrotation Yrotation
                                JOINT LeftFinger21
                                {
                                    OFFSET   5.111620   0.000000   0.000000
                                    CHANNELS 3 Zrotation Xrotation Yrotation
                                    JOINT LeftFinger22
                                    {
                                        OFFSET   2.788160   0.000016   0.000000
                                        CHANNELS 3 Zrotation Xrotation Yrotation
                                        End Site
                                        {
                                            OFFSET   2.727660   0.000000   0.000000
                                        }
                                    }
                                }
                            }
                            JOINT LeftFinger3
                            {
                                OFFSET   7.899780   0.000017  -1.078090
                                CHANNELS 3 Zrotation Xrotation Yrotation
                                JOINT LeftFinger31
                                {
                                    OFFSET   4.646930   0.000000   0.000000
                                    CHANNELS 3 Zrotation Xrotation Yrotation
                                    JOINT LeftFinger32
                                    {
                                        OFFSET   2.323470   0.000000   0.000000
                                        CHANNELS 3 Zrotation Xrotation Yrotation
                                        End Site
                                        {
                                            OFFSET   2.273050   0.000000   0.000000
                                        }
                                    }
                                }
                            }
                            JOINT LeftFinger4
                            {
                                OFFSET   7.435090   0.000000  -3.252850
                                CHANNELS 3 Zrotation Xrotation Yrotation
                                JOINT LeftFinger41
                                {
                                    OFFSET   3.717550   0.000000   0.000000
                                    CHANNELS 3 Zrotation Xrotation Yrotation
                                    JOINT LeftFinger42
                                    {
                                        OFFSET   1.858770   0.000000   0.000000
                                        CHANNELS 3 Zrotation Xrotation Yrotation
                                        End Site
                                        {
                                            OFFSET   1.818440   0.000000   0.000000
                                        }
                                    }
                                }
                            }
                        }
                    }
                }
            }
            JOINT RightCollar
            {
                OFFSET  -3.911900  19.017000  -0.467063
                CHANNELS 3 Zrotation Xrotation Yrotation
                JOINT RightShoulder
                {
                    OFFSET -10.383700   0.000019   0.000000
                    CHANNELS 3 Zrotation Xrotation Yrotation
                    JOINT RightElbow
                    {
                        OFFSET -26.662100   0.001175   0.000102
                        CHANNELS 3 Zrotation Xrotation Yrotation
                        JOINT RightWrist
                        {
                            OFFSET -28.869000   0.000016  -0.000079
                            CHANNELS 3 Zrotation Xrotation Yrotation
                            JOINT RightFinger0
                            {
                                OFFSET  -2.044660  -2.323490   3.252850
                                CHANNELS 3 Zrotation Xrotation Yrotation
                                JOINT RightFinger01
                                {
                                    OFFSET  -3.088140   0.000000   0.000000
                                    CHANNELS 3 Zrotation Xrotation Yrotation
                                    JOINT RightFinger02
                                    {
                                        OFFSET  -2.639460   0.000000   0.000000
                                        CHANNELS 3 Zrotation Xrotation Yrotation
                                        End Site
                                        {
                                            OFFSET  -2.582190   0.000000   0.000000
                                        }
                                    }
                                }
                            }
                            JOINT RightFinger1
                            {
                                OFFSET  -8.364480   0.000000   3.252850
                                CHANNELS 3 Zrotation Xrotation Yrotation
                                JOINT RightFinger11
                                {
                                    OFFSET  -4.646930   0.000000   0.000000
                                    CHANNELS 3 Zrotation Xrotation Yrotation
                                    JOINT RightFinger12
                                    {
                                        OFFSET  -2.323470   0.000000   0.000000
                                        CHANNELS 3 Zrotation Xrotation Yrotation
                                        End Site
                                        {
                                            OFFSET  -2.273050   0.000000   0.000000
                                        }
                                    }
                                }
                            }
                            JOINT RightFinger2
                            {
                                OFFSET  -8.364480   0.000000   1.078090
                                CHANNELS 3 Zrotation Xrotation Yrotation
                                JOINT RightFinger21
                                {
                                    OFFSET  -5.111620   0.000000   0.000000
                                    CHANNELS 3 Zrotation Xrotation Yrotation
                                    JOINT RightFinger22
                                    {
                                        OFFSET  -2.788160   0.000000   0.000000
                                        CHANNELS 3 Zrotation Xrotation Yrotation
                                        End Site
                                        {
                                            OFFSET  -2.727660   0.000000   0.000000
                                        }
                                    }
                                }
                            }
                            JOINT RightFinger3
                            {
                                OFFSET  -7.899780   0.000000  -1.078090
                                CHANNELS 3 Zrotation Xrotation Yrotation
                                JOINT RightFinger31
                                {
                                    OFFSET  -4.646930   0.000000   0.000000
                                    CHANNELS 3 Zrotation Xrotation Yrotation
                                    JOINT RightFinger32
                                    {
                                        OFFSET  -2.323470   0.000000   0.000000
                                        CHANNELS 3 Zrotation Xrotation Yrotation
                                        End Site
                                        {
                                            OFFSET  -2.273050   0.000000   0.000000
                                        }
                                    }
                                }
                            }
                            JOINT RightFinger4
                            {
                                OFFSET  -7.435090   0.000000  -3.252850
                                CHANNELS 3 Zrotation Xrotation Yrotation
                                JOINT RightFinger41
                                {
                                    OFFSET  -3.717550   0.000000   0.000000
                                    CHANNELS 3 Zrotation Xrotation Yrotation
                                    JOINT RightFinger42
                                    {
                                        OFFSET  -1.858770   0.000000   0.000000
                                        CHANNELS 3 Zrotation Xrotation Yrotation
                                        End Site
                                        {
                                            OFFSET  -1.818440   0.000000   0.000000
                                        }
                                    }
                                }
                            }
                        }
                    }
                }
            }
        }
    }
    JOINT LeftHip
    {
        OFFSET   9.783040   0.000000   0.000000
        CHANNELS 3 Zrotation Xrotation Yrotation
        JOINT LeftKnee
        {
            OFFSET   0.000032 -41.789100  -0.002222
            CHANNELS 3 Zrotation Xrotation Yrotation
            JOINT LeftAnkle
            {
                OFFSET   0.000087 -41.133200  -0.000135
                CHANNELS 3 Zrotation Xrotation Yrotation
                JOINT LeftToe
                {
                    OFFSET   0.000000  -6.358960  14.674500
                    CHANNELS 3 Zrotation Xrotation Yrotation
                    End Site
                    {
                        OFFSET   0.000000   0.000000   3.913200
                    }
                }
            }
        }
    }
    JOINT RightHip
    {
        OFFSET  -9.783040   0.000000   0.000000
        CHANNELS 3 Zrotation Xrotation Yrotation
        JOINT RightKnee
        {
            OFFSET   0.000047 -41.789100  -0.000896
            CHANNELS 3 Zrotation Xrotation Yrotation
            JOINT RightAnkle
            {
                OFFSET  -0.000117 -41.133300  -0.000248
                CHANNELS 3 Zrotation Xrotation Yrotation
                JOINT RightToe
                {
                    OFFSET   0.000000  -6.358970  14.674500
                    CHANNELS 3 Zrotation Xrotation Yrotation
                    End Site
                    {
                        OFFSET   0.000000   0.000000   3.913200
                    }
                }
            }
        }
    }
}
MOTION
Frames: 4
Frame Time:   0.016667
 -0.095890  89.504700   0.488240  -1.980320  -1.285510  -0.474422   1.271770   1.635000  -1.060840   2.575170   3.245750  -2.159050   0.217590   0.364278   0.000635   0.362090   0.738777   4.774470  -6.411360   3.297970   2.038710 -70.559200   9.083550  -4.338710  -1.477410  -3.601160 -15.418500   1.578690  -6.358150  11.686900  41.317400  29.292800 -58.720400 -25.279200   0.001480   0.000734  -7.639640   0.000689  -0.000592 -31.985900   5.021660  -7.978410 -26.457000  -0.000268  -0.000070 -18.519900   0.001000  -0.006766 -28.147100   1.794620  -3.349390 -33.439000  -0.001778   0.003558 -22.270400  -0.001016  -0.004636 -27.747300  -0.812776   1.528710 -30.596200  -0.005548   0.000714 -20.377100  -0.006084  -0.000219 -32.615900  -0.931343   1.455040 -48.941600  -0.005690  -0.001846 -32.595100  -0.000674  -0.001923   5.688800   1.169540   7.714620  72.991500   1.534950  -3.036780  -0.753849  -0.887552  11.632700 -10.079000 -13.151400   5.920320 -39.563600  34.467800  65.367100  32.076800   0.007336  -0.004561  11.046100  -0.000087   0.012360  36.785700   8.639540  11.359800  30.801800  -0.002391   0.005938  21.561200  -0.008622   0.000000  30.036500   4.869720   8.352410  45.588500   0.000971   0.000347  30.362000  -0.002638  -0.004639  30.798000   3.221540   5.385850  46.424300   0.000258  -0.004890  30.918600   0.001412  -0.002897  38.826900  -0.732481  -0.915477  58.249000  -0.005587  -0.006866  38.793800   0.009861  -0.003524   3.985510   4.306950   4.182720   1.245170   0.330297  11.388100  -3.791230  -1.967480   2.215730   0.000000   0.000000  -0.000000   0.135621  -0.248745  -4.375920   1.222600   4.569880  -7.026860  -2.570650  -2.284360  -1.754550   0.000000   0.000000  -0.000000
 -0.095322  89.504700   0.481133  -1.979920  -1.295510  -0.453506   1.271840   1.646120  -1.060490   2.575540   3.267990  -2.158610   0.217621   0.374277   0.000656   0.361480   0.759164   4.774220  -6.410870   3.292600   2.036590 -70.559000   9.096770  -4.332540  -1.500370  -3.609580 -15.434900   1.560570  -6.345250  11.692400  41.327900  29.290000 -58.703100 -25.261700   0.001485   0.000747  -7.630830   0.000684  -0.000592 -31.964500   5.022260  -7.985050 -26.441800  -0.000268  -0.000069 -18.507600   0.000999  -0.006766 -28.146700   1.798850  -3.358020 -33.395700  -0.001778   0.003559 -22.241500  -0.001016  -0.004634 -27.747500  -0.806769   1.524240 -30.572700  -0.005546   0.000715 -20.362400  -0.006083  -0.000219 -32.604000  -0.928309   1.450910 -48.923700  -0.005690  -0.001844 -32.583300  -0.000674  -0.001922   5.688740   1.169480   7.718750  72.981100   1.566430  -3.031290  -0.744254  -0.848417  11.660300 -10.070700 -13.117100   5.930040 -39.561800  34.458800  65.344100  32.078000   0.007336  -0.004531  11.046000  -0.000088   0.012362  36.771700   8.631920  11.355700  30.789500  -0.002390   0.005938  21.552600  -0.008622  -0.000000  30.029500   4.863860   8.344840  45.576800   0.000969   0.000347  30.354200  -0.002633  -0.004639  30.789500   3.216000   5.378480  46.410800   0.000255  -0.004889  30.909600   0.001412  -0.002898  38.817000  -0.732481  -0.914161  58.234200  -0.005589  -0.006867  38.784000   0.009863  -0.003524   3.985200   4.309810   4.182750   1.244820   0.324810  11.378900  -3.790780  -1.958410   2.203380   0.000000   0.000000  -0.000000   0.136093  -0.244901  -4.372490   1.224560   4.575810  -7.040330  -2.571220  -2.284190  -1.765590  -0.000000   0.000000   0.000000
 -0.093784  89.504700   0.469916  -1.979230  -1.310840  -0.419017   1.271510   1.663330  -1.059060   2.575170   3.302450  -2.156150   0.217719   0.389963   0.000677   0.360576   0.791095   4.773990  -6.410240   3.287240   2.031860 -70.558500   9.115290  -4.326430  -1.534080  -3.620980 -15.460000   1.539410  -6.328270  11.697800  41.341400  29.281600 -58.680700 -25.236800   0.001490   0.000760  -7.618380   0.000679  -0.000592 -31.940500   5.026850  -8.000500 -26.420900  -0.000267  -0.000067 -18.494600   0.000997  -0.006767 -28.146000   1.806800  -3.373740 -33.352300  -0.001778   0.003562 -22.212600  -0.001015  -0.004630 -27.747900  -0.796698   1.514020 -30.549200  -0.005541   0.000716 -20.345700  -0.006079  -0.000218 -32.592300  -0.921730   1.441330 -48.905900  -0.005688  -0.001841 -32.571400  -0.000674  -0.001918   5.688730   1.169420   7.722890  72.968500   1.615740  -3.022490  -0.727175  -0.797003  11.687900 -10.057200 -13.065400   5.943810 -39.557100  34.441300  65.300000  32.081100   0.007335  -0.004489  11.045800  -0.000089   0.012372  36.747300   8.617250  11.346900  30.767800  -0.002388   0.005938  21.537400  -0.008622  -0.000000  30.016900   4.853520   8.331580  45.555800   0.000966   0.000346  30.340200  -0.002628  -0.004638  30.774500   3.206200   5.365400  46.387100   0.000252  -0.004888  30.893800   0.001411  -0.002899  38.799500  -0.732481  -0.910952  58.207900  -0.005590  -0.006869  38.766500   0.009866  -0.003524   3.984820   4.312760   4.182830   1.243810   0.319331  11.361900  -3.790170  -1.944480   2.184450   0.000000   0.000000  -0.000000   0.136729  -0.239041  -4.366520   1.227460   4.585550  -7.059640  -2.572190  -2.284010  -1.786850  -0.000000   0.000000   0.000000
 -0.091179  89.504700   0.462266  -1.978650  -1.320210  -0.392268   1.270180   1.673990  -1.055990   2.572640   3.323870  -2.150230   0.217921   0.400755   0.000653   0.360094   0.812953   4.774540  -6.410110   3.293570   2.025020 -70.557900   9.123200  -4.326540  -1.550590  -3.624560 -15.473800   1.537080  -6.324080  11.697700  41.341200  29.268800 -58.675600 -25.224500   0.001483   0.000759  -7.612650   0.000683  -0.000592 -31.934600   5.043300  -8.029120 -26.413100  -0.000269  -0.000066 -18.493900   0.000997  -0.006766 -28.145000   1.817490  -3.393500 -33.364900  -0.001776   0.003570 -22.221000  -0.001014  -0.004627 -27.748200  -0.786453   1.495510 -30.549500  -0.005532   0.000718 -20.343900  -0.006074  -0.000216 -32.597500  -0.910590   1.423620 -48.913200  -0.005686  -0.001836 -32.576200  -0.000674  -0.001914   5.688510   1.172920   7.717980  72.966600   1.649650  -3.014710  -0.710879  -0.782671  11.687200 -10.046600 -13.034900   5.949430 -39.547400  34.416300  65.238800  32.086400   0.007333  -0.004475  11.045900  -0.000094   0.012397  36.721600   8.596640  11.331900  30.744500  -0.002387   0.005939  21.521000  -0.008620   0.000000  30.003700   4.841480   8.316380  45.533700   0.000966   0.000346  30.325500  -0.002632  -0.004638  30.760400   3.194740   5.349930  46.364600   0.000254  -0.004887  30.878800   0.001414  -0.002901  38.782300  -0.728776  -0.905823  58.182100  -0.005589  -0.006870  38.749300   0.009865  -0.003526   3.984650   4.312810   4.183180   1.242770   0.319529  11.343000  -3.789970  -1.935850   2.173200  -0.000000   0.000000  -0.000000   0.135403  -0.235637  -4.359770   1.229140   4.593400  -7.068470  -2.572490  -2.284220  -1.811310   0.000000   0.000000  -0.000000
